# xmcd CD database file
#
# Track frame offsets:
#	150
#	13664
#	27233
#	40496
#	54902
#	68082
#	80175
#	95249
#	108457
#	121692
#	135318
#	151451
#	165355
#	178339
#	193330
#	206872
#	218213
#
# Disc length: 3095 seconds
#
# Revision: 1
# Processed by: cddbd v1.5.1PL0 Copyright (c) Steve Scherf et al.
# Submitted via: CDex 1.51
#
DISCID=f50c1511
DTITLE=Thelonious Monk - Misterioso
DYEAR=1900
DGENRE=Jazz
TTITLE0=Suburban eyes
TTITLE1=Thelonious
TTITLE2=Well, you needn't
TTITLE3=Introspection
TTITLE4=In walked bud
TTITLE5=Who knows
TTITLE6=Misterioso
TTITLE7=Criss cross
TTITLE8=Straight, no chaser
TTITLE9=Willow weep for me
TTITLE10=Sweet and lovely
TTITLE11=Monk's dream
TTITLE12=Humph
TTITLE13=April in Paris
TTITLE14=Off minor
TTITLE15=Evidence
TTITLE16=Epistrophy
EXTD=
EXTT0=
EXTT1=
EXTT2=
EXTT3=
EXTT4=
EXTT5=
EXTT6=
EXTT7=
EXTT8=
EXTT9=
EXTT10=
EXTT11=
EXTT12=
EXTT13=
EXTT14=
EXTT15=
EXTT16=
PLAYORDER=
